<svg width="23" height="23" viewBox="0 0 23 23" fill="none" xmlns="http://www.w3.org/2000/svg">
<path d="M11.5 0C5.16222 0 0 5.16222 0 11.5C0 17.8378 5.16222 23 11.5 23C11.7811 23 12.0111 22.77 12.0111 22.4889C12.0111 22.2078 11.7811 21.9778 11.5 21.9778C5.72444 21.9778 1.02222 17.2756 1.02222 11.5C1.02222 5.72444 5.72444 1.02222 11.5 1.02222C17.2756 1.02222 21.9778 5.72444 21.9778 11.5V14.0556C21.9778 15.3333 20.9556 16.3556 19.6778 16.3556C18.4 16.3556 17.3778 15.3333 17.3778 14.0556V11.5C17.3778 8.25444 14.7456 5.62222 11.5 5.62222C8.25444 5.62222 5.62222 8.25444 5.62222 11.5C5.62222 14.7456 8.25444 17.3778 11.5 17.3778C13.57 17.3778 15.3589 16.3044 16.4322 14.72C16.7133 16.2278 18.0678 17.3778 19.6778 17.3778C21.5178 17.3778 23 15.8956 23 14.0556V11.5C23 5.16222 17.8378 0 11.5 0ZM11.5 16.3556C8.81667 16.3556 6.64444 14.1833 6.64444 11.5C6.64444 8.81667 8.81667 6.64444 11.5 6.64444C14.1833 6.64444 16.3556 8.81667 16.3556 11.5C16.3556 14.1833 14.1833 16.3556 11.5 16.3556Z" fill="#303C42" fill-opacity="0.54"/>
</svg>
