<svg width="24" height="24" viewBox="0 0 24 24" fill="none" xmlns="http://www.w3.org/2000/svg">
<path d="M12 12.5238C15.1822 12.5238 17.7619 9.94412 17.7619 6.7619C17.7619 3.57969 15.1822 1 12 1C8.81779 1 6.2381 3.57969 6.2381 6.7619C6.2381 9.94412 8.81779 12.5238 12 12.5238Z" stroke="#303C42" stroke-opacity="0.59" stroke-linecap="round" stroke-linejoin="round"/>
<path d="M12 14.619C8.95871 14.7024 5.97841 15.4914 3.29429 16.9238C2.60359 17.2743 2.02353 17.8093 1.61853 18.4695C1.21353 19.1297 0.999431 19.8893 1 20.6638V21.4286C1 21.8453 1.16556 22.245 1.46026 22.5397C1.75496 22.8344 2.15466 23 2.57143 23H21.4286C21.8453 23 22.245 22.8344 22.5397 22.5397C22.8344 22.245 23 21.8453 23 21.4286V20.6638C23.0006 19.8893 22.7865 19.1297 22.3815 18.4695C21.9765 17.8093 21.3964 17.2743 20.7057 16.9238C18.0216 15.4914 15.0413 14.7024 12 14.619V14.619Z" stroke="#303C42" stroke-opacity="0.59" stroke-linecap="round" stroke-linejoin="round"/>
</svg>
