<svg width="20" height="23" viewBox="0 0 20 23" fill="none" xmlns="http://www.w3.org/2000/svg">
<path d="M18.4615 8.625H16.9231V6.46875C16.9231 2.89584 13.8238 0 10 0C6.17615 0 3.07692 2.89584 3.07692 6.46875V8.625H1.53846C1.13044 8.625 0.739122 8.77645 0.450605 9.04603C0.162087 9.31562 0 9.68125 0 10.0625V21.5625C0 21.9437 0.162087 22.3094 0.450605 22.579C0.739122 22.8485 1.13044 23 1.53846 23H18.4615C18.8696 23 19.2609 22.8485 19.5494 22.579C19.8379 22.3094 20 21.9437 20 21.5625V10.0625C20 9.68125 19.8379 9.31562 19.5494 9.04603C19.2609 8.77645 18.8696 8.625 18.4615 8.625ZM3.84615 6.38394C3.84615 4.88144 4.48494 3.44047 5.62199 2.37805C6.75904 1.31562 8.3012 0.71875 9.90923 0.71875H10.09C10.8863 0.718656 11.6748 0.86512 12.4105 1.14978C13.1462 1.43444 13.8147 1.85172 14.3777 2.37779C14.9408 2.90386 15.3875 3.52842 15.6922 4.2158C15.997 4.90318 16.1538 5.63991 16.1538 6.38394V8.625H3.84615V6.38394ZM19.2308 20.8438C19.2308 21.225 19.0687 21.5906 18.7802 21.8602C18.4916 22.1298 18.1003 22.2812 17.6923 22.2812H2.30769C1.89967 22.2812 1.50835 22.1298 1.21984 21.8602C0.931318 21.5906 0.769231 21.225 0.769231 20.8438V10.7812C0.769231 10.4 0.931318 10.0344 1.21984 9.76478C1.50835 9.4952 1.89967 9.34375 2.30769 9.34375H17.6923C18.1003 9.34375 18.4916 9.4952 18.7802 9.76478C19.0687 10.0344 19.2308 10.4 19.2308 10.7812V20.8438Z" fill="#1C1C1C" fill-opacity="0.54"/>
</svg>
