<svg width="722" height="567" viewBox="0 0 722 567" fill="none" xmlns="http://www.w3.org/2000/svg">
<path d="M657.209 517.611C643.368 532.433 627.509 545.232 610.099 555.628C609.7 555.874 609.294 556.104 608.886 556.343L580.701 531.39C580.997 531.115 581.325 530.806 581.678 530.467C602.679 510.52 706.937 371.057 713.885 337.096C713.405 339.925 720.153 450.881 657.209 517.611Z" fill="#F0F0F0"/>
<path d="M615.537 560.443C615.004 560.57 614.462 560.689 613.918 560.798L592.773 542.077C593.186 541.933 593.669 541.762 594.221 541.572C603.294 538.359 630.316 528.658 657.207 517.609C686.102 505.733 714.858 492.313 721.042 483.717C719.716 485.714 678.85 546.282 615.537 560.443Z" fill="#F0F0F0"/>
<path d="M656.818 148.496H653.807V65.982C653.807 59.7105 652.572 53.5004 650.172 47.7063C647.773 41.9122 644.256 36.6475 639.822 32.2129C635.389 27.7783 630.126 24.2605 624.333 21.8605C618.54 19.4605 612.332 18.2253 606.062 18.2253H431.289C425.019 18.2253 418.81 19.4605 413.018 21.8605C407.225 24.2605 401.962 27.7782 397.528 32.2128C393.094 36.6474 389.578 41.9121 387.178 47.7062C384.779 53.5003 383.544 59.7104 383.544 65.9819V518.659C383.544 524.93 384.779 531.14 387.178 536.934C389.578 542.728 393.094 547.993 397.528 552.428C401.961 556.862 407.225 560.38 413.017 562.78C418.81 565.18 425.019 566.415 431.289 566.415H606.062C612.332 566.415 618.54 565.18 624.333 562.78C630.125 560.38 635.389 556.862 639.822 552.428C644.256 547.993 647.773 542.729 650.172 536.934C652.572 531.14 653.807 524.93 653.807 518.659V207.23H656.818V148.496Z" fill="#3F3D56"/>
<path d="M643.643 66.31V518.328C643.643 523.011 642.721 527.649 640.929 531.976C639.136 536.303 636.509 540.234 633.198 543.546C629.886 546.857 625.955 549.483 621.628 551.274C617.302 553.065 612.665 553.986 607.983 553.985H432.368C427.687 553.985 423.051 553.063 418.726 551.271C414.401 549.479 410.471 546.853 407.16 543.542C403.85 540.231 401.224 536.3 399.433 531.974C397.641 527.647 396.72 523.01 396.72 518.328V66.31C396.72 61.6274 397.641 56.9906 399.433 52.6643C401.224 48.3381 403.85 44.4072 407.16 41.096C410.471 37.7849 414.401 35.1585 418.726 33.3667C423.051 31.5749 427.687 30.6528 432.368 30.6532H453.68C452.634 33.2261 452.236 36.0167 452.521 38.7796C452.806 41.5424 453.765 44.1929 455.315 46.4979C456.864 48.8028 458.956 50.6917 461.406 51.9983C463.857 53.3049 466.591 53.9892 469.367 53.9911H569.49C572.269 53.9937 575.005 53.3123 577.458 52.0069C579.911 50.7015 582.005 48.8124 583.555 46.5061C585.106 44.1998 586.065 41.5473 586.348 38.7826C586.631 36.0179 586.229 33.226 585.178 30.6532H607.983C612.665 30.6515 617.302 31.5725 621.628 33.3637C625.955 35.1549 629.886 37.7811 633.198 41.0923C636.509 44.4035 639.136 48.3349 640.929 52.6618C642.721 56.9887 643.643 61.6264 643.643 66.31V66.31Z" fill="white"/>
<path d="M589.016 301.203H434.656C431.952 301.2 429.36 300.124 427.449 298.212C425.537 296.299 424.461 293.707 424.458 291.002V285.925C424.461 283.221 425.537 280.628 427.449 278.716C429.36 276.804 431.952 275.728 434.656 275.725H589.016C591.72 275.728 594.312 276.804 596.224 278.716C598.135 280.628 599.211 283.221 599.214 285.925V291.002C599.211 293.707 598.135 296.299 596.224 298.212C594.312 300.124 591.72 301.2 589.016 301.203Z" fill="#F0F0F0"/>
<path d="M589.016 344.969H434.656C431.952 344.966 429.36 343.891 427.449 341.978C425.537 340.066 424.461 337.473 424.458 334.769V329.692C424.461 326.987 425.537 324.395 427.449 322.482C429.36 320.57 431.952 319.495 434.656 319.491H589.016C591.72 319.495 594.312 320.57 596.224 322.482C598.135 324.395 599.211 326.987 599.214 329.692V334.769C599.211 337.473 598.135 340.066 596.224 341.978C594.312 343.891 591.72 344.966 589.016 344.969V344.969Z" fill="#F0F0F0"/>
<path d="M596.737 291.414H442.378C439.539 291.411 436.817 290.282 434.81 288.274C432.802 286.266 431.673 283.544 431.67 280.704V275.627C431.673 272.787 432.802 270.065 434.81 268.057C436.817 266.049 439.539 264.92 442.378 264.917H596.737C599.576 264.92 602.298 266.049 604.305 268.057C606.313 270.065 607.442 272.787 607.445 275.627V280.704C607.442 283.544 606.313 286.266 604.305 288.274C602.298 290.282 599.576 291.411 596.737 291.414V291.414ZM442.378 266.957C440.08 266.959 437.876 267.873 436.251 269.499C434.626 271.124 433.712 273.328 433.71 275.627V280.704C433.712 283.003 434.626 285.207 436.251 286.832C437.876 288.457 440.08 289.372 442.378 289.374H596.737C599.036 289.372 601.239 288.457 602.864 286.832C604.489 285.207 605.403 283.003 605.406 280.704V275.627C605.403 273.328 604.489 271.124 602.864 269.499C601.239 267.873 599.036 266.959 596.737 266.957H442.378Z" fill="#3F3D56"/>
<path d="M596.737 335.181H442.378C439.539 335.178 436.817 334.048 434.81 332.04C432.802 330.032 431.673 327.31 431.67 324.471V319.393C431.673 316.554 432.802 313.831 434.81 311.824C436.817 309.816 439.539 308.686 442.378 308.683H596.737C599.576 308.686 602.298 309.816 604.305 311.824C606.313 313.831 607.442 316.554 607.445 319.393V324.471C607.442 327.31 606.313 330.032 604.305 332.04C602.298 334.048 599.576 335.178 596.737 335.181V335.181ZM442.378 310.723C440.08 310.726 437.876 311.64 436.251 313.265C434.626 314.891 433.712 317.095 433.71 319.393V324.471C433.712 326.769 434.626 328.973 436.251 330.599C437.876 332.224 440.08 333.138 442.378 333.141H596.737C599.036 333.138 601.239 332.224 602.864 330.599C604.489 328.973 605.403 326.769 605.406 324.471V319.393C605.403 317.095 604.489 314.891 602.864 313.265C601.239 311.64 599.036 310.726 596.737 310.723H442.378Z" fill="#3F3D56"/>
<path d="M643.643 66.31V164.63C628.025 168.74 611.671 169.212 595.842 166.009C580.012 162.805 565.128 156.013 552.335 146.153C539.542 136.293 529.18 123.629 522.048 109.136C514.915 94.6425 511.201 78.7056 511.193 62.5513C511.193 59.6679 511.308 56.8145 511.54 53.9911H569.49C572.269 53.9937 575.005 53.3123 577.458 52.0069C579.911 50.7015 582.005 48.8124 583.555 46.5061C585.106 44.1998 586.065 41.5473 586.348 38.7826C586.631 36.0179 586.229 33.226 585.178 30.6532H607.983C612.665 30.6515 617.302 31.5725 621.628 33.3637C625.955 35.1549 629.886 37.7811 633.198 41.0923C636.509 44.4035 639.136 48.3349 640.929 52.6618C642.721 56.9887 643.643 61.6264 643.643 66.31V66.31Z" fill="#F0F0F0"/>
<path d="M485.454 547.844C485.454 549.917 485.377 551.964 485.209 553.985H432.368C427.687 553.985 423.051 553.063 418.726 551.271C414.401 549.479 410.471 546.853 407.16 543.542C403.85 540.231 401.224 536.3 399.433 531.974C397.641 527.647 396.72 523.01 396.72 518.328V469.979C407.796 468.538 419.052 469.475 429.738 472.727C440.424 475.98 450.294 481.473 458.69 488.841C467.087 496.209 473.817 505.283 478.432 515.457C483.046 525.631 485.44 536.672 485.454 547.844H485.454Z" fill="#5F7FFF"/>
<path d="M59.2706 463.01C60.7554 463.663 62.4386 463.7 63.951 463.114C65.4634 462.527 66.6814 461.365 67.338 459.881L114.94 351.968C116.03 349.499 116.363 346.762 115.897 344.103C115.431 341.444 114.188 338.983 112.323 337.032C110.459 335.08 108.058 333.725 105.424 333.138C102.79 332.551 100.041 332.759 97.5253 333.734H97.5252C94.6183 334.845 92.1858 336.928 90.6416 339.631C90.3959 340.058 90.1732 340.498 89.9742 340.949L42.3719 448.862C42.0474 449.597 41.871 450.39 41.8526 451.193C41.8342 451.997 41.9743 452.796 42.2647 453.545C42.5552 454.295 42.9904 454.979 43.5455 455.561C44.1006 456.142 44.7647 456.608 45.4999 456.932L59.2706 463.01Z" fill="#5F7FFF"/>
<path d="M112.986 396.271L65.9014 385.805L77.5553 354.968C79.5407 347.431 84.1609 340.855 90.5781 336.433C96.9953 332.011 104.784 330.036 112.533 330.867L112.986 330.917L112.986 396.271Z" fill="#2F2E41"/>
<path d="M208.09 464.553C206.705 464.551 205.351 464.147 204.19 463.391C203.03 462.635 202.113 461.559 201.551 460.293L153.949 352.38C152.435 348.946 152.295 345.063 153.556 341.529C154.817 337.995 157.385 335.079 160.73 333.38C164.076 331.682 167.945 331.331 171.541 332.399C175.138 333.467 178.188 335.873 180.065 339.123V339.122C180.329 339.581 180.568 340.054 180.781 340.538L228.384 448.451C229.148 450.183 229.193 452.149 228.508 453.914C227.824 455.68 226.466 457.101 224.734 457.866L210.497 464.149L210.49 464.133C209.72 464.41 208.908 464.553 208.09 464.553V464.553Z" fill="#5F7FFF"/>
<path d="M142.244 427.496C140.621 427.498 139.066 428.144 137.919 429.291C136.772 430.438 136.127 431.994 136.125 433.616V559.094C136.127 560.717 136.772 562.273 137.919 563.42C139.066 564.567 140.621 565.213 142.244 565.214H157.295C158.917 565.213 160.472 564.567 161.62 563.42C162.767 562.273 163.412 560.717 163.414 559.094V433.616C163.412 431.994 162.767 430.438 161.62 429.291C160.472 428.144 158.917 427.498 157.295 427.496H142.244Z" fill="#5F7FFF"/>
<path d="M112.474 427.496C110.852 427.498 109.297 428.144 108.149 429.291C107.002 430.438 106.357 431.994 106.355 433.616V559.094C106.357 560.717 107.002 562.273 108.149 563.42C109.297 564.567 110.852 565.213 112.474 565.214H127.526C129.148 565.213 130.703 564.567 131.85 563.42C132.997 562.273 133.642 560.717 133.644 559.094V433.616C133.642 431.994 132.997 430.438 131.85 429.291C130.703 428.144 129.148 427.498 127.526 427.496H112.474Z" fill="#5F7FFF"/>
<path d="M134.435 296.036C163.158 296.036 186.443 272.746 186.443 244.015C186.443 215.284 163.158 191.994 134.435 191.994C105.711 191.994 82.4265 215.284 82.4265 244.015C82.4265 272.746 105.711 296.036 134.435 296.036Z" fill="#5F7FFF"/>
<path d="M151.742 265.853C155.114 265.759 159.309 265.642 162.542 263.28C163.504 262.548 164.295 261.614 164.859 260.544C165.423 259.474 165.745 258.294 165.805 257.086C165.864 256.227 165.723 255.367 165.394 254.572C165.065 253.777 164.556 253.069 163.908 252.503C162.22 251.076 159.754 250.741 157.098 251.522L159.85 231.401L157.83 231.125L154.594 254.779L156.281 254.004C158.237 253.107 160.923 252.65 162.591 254.061C163.001 254.429 163.32 254.888 163.524 255.4C163.728 255.912 163.811 256.465 163.767 257.014C163.717 257.913 163.475 258.791 163.056 259.588C162.637 260.385 162.051 261.082 161.339 261.633C158.823 263.471 155.479 263.708 151.686 263.814L151.742 265.853Z" fill="#2F2E41"/>
<path d="M180.828 233.137H169.843V235.177H180.828V233.137Z" fill="#2F2E41"/>
<path d="M146.156 233.137H135.171V235.177H146.156V233.137Z" fill="#2F2E41"/>
<path d="M185.968 465.187L167.249 328.503C167.048 327.037 166.323 325.694 165.209 324.722C164.094 323.749 162.665 323.213 161.186 323.213H147.057C147.116 322.877 147.146 322.535 147.149 322.193V317.093C147.149 315.47 146.504 313.914 145.356 312.766C144.209 311.618 142.653 310.973 141.03 310.973H128.793C127.17 310.973 125.614 311.618 124.466 312.766C123.319 313.914 122.674 315.47 122.674 317.093V322.193C122.676 322.535 122.707 322.877 122.766 323.213H108.636C107.157 323.213 105.728 323.749 104.614 324.722C103.499 325.694 102.775 327.037 102.574 328.503L83.8548 465.187C83.7363 466.052 83.8044 466.934 84.0548 467.771C84.3051 468.608 84.7317 469.382 85.306 470.04C85.8803 470.699 86.589 471.227 87.3843 471.589C88.1796 471.95 89.0431 472.137 89.9167 472.137H179.906C180.779 472.137 181.643 471.95 182.438 471.589C183.234 471.227 183.942 470.699 184.517 470.04C185.091 469.382 185.517 468.608 185.768 467.771C186.018 466.934 186.086 466.052 185.968 465.187V465.187Z" fill="#2F2E41"/>
<path d="M156.836 396.271V330.917L157.29 330.867C165.048 330.037 172.845 332.018 179.267 336.451C185.688 340.883 190.307 347.472 192.284 355.021L203.921 385.805L156.836 396.271Z" fill="#2F2E41"/>
<path d="M131.816 297.66L95.8429 283.694C89.9606 281.41 84.0454 279.196 78.1942 276.833C75.6878 275.96 73.379 274.599 71.4009 272.829C69.6787 271.005 68.505 268.733 68.0141 266.273C66.7665 260.998 66.992 255.231 67.081 249.848C67.1501 243.959 67.6346 238.082 68.5309 232.262C70.1018 221.324 73.791 210.798 79.3918 201.273C89.4801 184.716 106.862 172.26 126.855 173.254C136.111 173.714 145.421 177.036 152.298 183.366C153.015 184.224 153.82 185.004 154.699 185.695C155.311 185.924 155.976 185.969 156.612 185.823C157.451 185.769 158.291 185.728 159.132 185.699C162.049 185.576 164.971 185.699 167.867 186.066C173.145 186.636 178.147 188.714 182.277 192.051C185.713 195.008 188.51 199.182 188.797 203.822C188.936 205.951 188.584 208.085 187.768 210.057C186.953 212.029 185.695 213.787 184.092 215.196C179.8 218.814 173.677 217.542 168.529 217.269L149.669 216.27L140.114 215.763C138.146 215.659 138.152 218.719 140.114 218.823L165.511 220.169C169.593 220.386 173.799 220.916 177.884 220.671C181.022 220.529 184.019 219.323 186.382 217.251C188.539 215.269 190.147 212.761 191.047 209.972C191.947 207.183 192.109 204.208 191.518 201.338C190.208 195.077 185.55 189.898 180.09 186.818C172.659 182.625 163.785 182.224 155.471 182.843L156.553 183.292C147.148 173.195 132.743 168.932 119.219 170.424C104.94 171.999 92.2396 179.967 83.1147 190.863C72.941 203.011 67.3969 218.158 65.2416 233.735C64.12 242.144 63.7507 250.637 64.1382 259.113C64.1222 262.85 64.7615 266.562 66.0271 270.079C67.471 273.502 70.0818 276.301 73.3951 277.98C77.1937 279.814 81.0989 281.419 85.0897 282.785L98.3429 287.931L124.376 298.038L131.003 300.611C132.839 301.324 133.635 298.366 131.816 297.66Z" fill="#2F2E41"/>
<path d="M75.2545 193.67C72.1283 193.67 69.0722 192.743 66.4729 191.005C63.8735 189.268 61.8476 186.799 60.6512 183.91C59.4549 181.021 59.1418 177.842 59.7517 174.775C60.3616 171.708 61.867 168.891 64.0776 166.68C66.2882 164.469 69.1047 162.963 72.1708 162.353C75.237 161.743 78.4151 162.056 81.3034 163.253C84.1916 164.449 86.6603 166.476 88.3971 169.076C90.1339 171.676 91.061 174.733 91.061 177.86C91.0563 182.051 89.3895 186.07 86.4262 189.034C83.4629 191.998 79.4452 193.665 75.2545 193.67ZM75.2545 165.109C72.7334 165.109 70.2688 165.857 68.1725 167.258C66.0763 168.659 64.4425 170.65 63.4777 172.98C62.5129 175.31 62.2604 177.874 62.7523 180.347C63.2441 182.82 64.4582 185.092 66.2409 186.875C68.0236 188.659 70.2949 189.873 72.7677 190.365C75.2404 190.857 77.8034 190.604 80.1326 189.639C82.4619 188.674 84.4527 187.04 85.8534 184.943C87.2541 182.847 88.0017 180.381 88.0017 177.86C87.9979 174.479 86.6537 171.238 84.2639 168.848C81.8742 166.458 78.6341 165.113 75.2545 165.109V165.109Z" fill="#2F2E41"/>
<path d="M339.482 291.649L305.27 265.476L279.103 299.697L313.316 325.87L339.482 291.649Z" fill="#F0F0F0"/>
<path d="M146.129 58.0063C151.534 58.0021 156.866 59.264 161.696 61.691C166.527 64.1181 170.722 67.6428 173.946 71.9829L193.923 45.8562L133.982 0L88.1371 59.9562L113.972 79.7201C116.557 73.3066 121 67.8126 126.73 63.9435C132.46 60.0743 139.215 58.0068 146.129 58.0063V58.0063Z" fill="#F0F0F0"/>
<path d="M720.98 567H1.01977C0.749313 567 0.489929 566.893 0.298684 566.701C0.107439 566.51 0 566.251 0 565.98C0 565.709 0.107439 565.45 0.298684 565.259C0.489929 565.067 0.749313 564.96 1.01977 564.96H720.98C721.251 564.96 721.51 565.067 721.701 565.259C721.893 565.45 722 565.709 722 565.98C722 566.251 721.893 566.51 721.701 566.701C721.51 566.893 721.251 567 720.98 567Z" fill="#3F3D56"/>
<path d="M545.26 397.746H471.977C469.274 397.743 466.681 396.667 464.77 394.755C462.858 392.843 461.783 390.25 461.779 387.546V382.469C461.783 379.764 462.858 377.172 464.77 375.259C466.681 373.347 469.274 372.271 471.977 372.268H545.26C547.964 372.271 550.556 373.347 552.468 375.259C554.38 377.172 555.455 379.764 555.458 382.469V387.546C555.455 390.25 554.38 392.843 552.468 394.755C550.556 396.667 547.964 397.743 545.26 397.746V397.746Z" fill="#5F7FFF"/>
<path d="M552.982 387.958H479.699C476.86 387.955 474.138 386.826 472.131 384.818C470.123 382.81 468.994 380.088 468.991 377.248V372.171C468.994 369.331 470.123 366.609 472.131 364.601C474.138 362.593 476.86 361.464 479.699 361.461H552.982C555.821 361.464 558.542 362.593 560.55 364.601C562.557 366.609 563.686 369.331 563.69 372.171V377.248C563.686 380.088 562.557 382.81 560.55 384.818C558.542 386.826 555.821 387.955 552.982 387.958V387.958ZM479.699 363.501C477.401 363.503 475.197 364.417 473.572 366.043C471.947 367.668 471.033 369.872 471.031 372.171V377.248C471.033 379.547 471.947 381.751 473.572 383.376C475.197 385.001 477.401 385.916 479.699 385.918H552.982C555.28 385.916 557.483 385.001 559.108 383.376C560.733 381.751 561.648 379.547 561.65 377.248V372.171C561.648 369.872 560.733 367.668 559.108 366.043C557.483 364.417 555.28 363.503 552.982 363.501H479.699Z" fill="#3F3D56"/>
</svg>
