<?xml version="1.0" encoding="UTF-8" standalone="no"?>
<!-- Created with Inkscape (http://www.inkscape.org/) -->

<svg
   xmlns:dc="http://purl.org/dc/elements/1.1/"
   xmlns:cc="http://creativecommons.org/ns#"
   xmlns:rdf="http://www.w3.org/1999/02/22-rdf-syntax-ns#"
   xmlns:svg="http://www.w3.org/2000/svg"
   xmlns="http://www.w3.org/2000/svg"
   xmlns:sodipodi="http://sodipodi.sourceforge.net/DTD/sodipodi-0.dtd"
   xmlns:inkscape="http://www.inkscape.org/namespaces/inkscape"
   width="699"
   height="699"
   id="svg2"
   version="1.1"
   inkscape:version="0.48.5 r10040"
   sodipodi:docname="javascript.svg">
  <defs
     id="defs4" />
  <sodipodi:namedview
     id="base"
     pagecolor="#ffffff"
     bordercolor="#666666"
     borderopacity="1.0"
     inkscape:pageopacity="0.0"
     inkscape:pageshadow="2"
     inkscape:zoom="0.35"
     inkscape:cx="187.35714"
     inkscape:cy="473.78572"
     inkscape:document-units="px"
     inkscape:current-layer="layer1"
     showgrid="false"
     inkscape:window-width="1366"
     inkscape:window-height="664"
     inkscape:window-x="-8"
     inkscape:window-y="-8"
     inkscape:window-maximized="1"
     fit-margin-top="0"
     fit-margin-left="0"
     fit-margin-right="0"
     fit-margin-bottom="0" />
  <metadata
     id="metadata7">
    <rdf:RDF>
      <cc:Work
         rdf:about="">
        <dc:format>image/svg+xml</dc:format>
        <dc:type
           rdf:resource="http://purl.org/dc/dcmitype/StillImage" />
        <dc:title></dc:title>
      </cc:Work>
    </rdf:RDF>
  </metadata>
  <g
     inkscape:label="Layer 1"
     inkscape:groupmode="layer"
     id="layer1"
     transform="translate(-187.64286,-331.43361)">
    <g
       transform="translate(187.64286,330.43361)"
       id="g2987">
      <path
         style="fill:#eed94d"
         d="M 0,350.5 0,1 349.5,1 699,1 699,350.5 699,700 349.5,700 0,700 0,350.5 z m 306,291.88551 c 42.03538,-7.26467 67.35197,-34.14392 72.97724,-77.48175 0.56591,-4.35985 0.9737,-56.01993 0.99188,-125.65376 L 380,321 l -32.5,0 -32.5,0 -0.0173,111.75 c -0.0104,66.8853 -0.4162,115.53744 -1.01086,121.18384 -1.9696,18.70193 -8.96206,27.80409 -23.77103,30.94295 -20.97518,4.44584 -36.59587,-3.97036 -49.42005,-26.62679 -1.63441,-2.8875 -3.44418,-5.25 -4.02173,-5.25 -0.94616,0 -50.0968,29.28087 -52.09002,31.03197 -2.0788,1.82628 10.36912,20.86744 20.07292,30.70488 23.83103,24.15922 61.66819,34.49071 101.2581,27.64866 z m 251.5,0.51536 c 26.72936,-3.36873 48.51519,-13.69547 64.48529,-30.56678 6.5435,-6.91275 9.00163,-10.45699 12.95749,-18.68264 6.49613,-13.50778 8.10509,-20.34074 8.74801,-37.15145 1.16372,-30.42796 -6.87591,-51.94801 -26.36112,-70.56199 C 603.3626,472.59544 585.7523,462.28897 552.5,447.99631 c -34.10286,-14.65826 -44.59377,-21.3614 -49.59221,-31.6868 -3.47114,-7.17042 -3.29151,-18.00984 0.42384,-25.57604 5.50351,-11.2077 16.12506,-16.38396 31.78705,-15.49096 14.92396,0.85093 25.3309,7.14372 34.41684,20.81091 l 4.5327,6.81816 22.89946,-14.68579 C 609.56238,380.1086 621.02025,372.6 622.4296,371.5 l 2.56246,-2 -5.64564,-8.36881 c -14.15406,-20.98122 -32.88644,-34.301 -56.55253,-40.21203 -11.95275,-2.98542 -38.77474,-3.75813 -51.79389,-1.49212 -21.44782,3.73302 -36.62867,11.25529 -50.60025,25.07296 -12.64692,12.5076 -19.48466,25.02567 -23.02755,42.15729 -2.49558,12.06733 -1.49098,34.97374 2.05219,46.79337 9.05883,30.21919 29.41176,49.69155 71.23861,68.15647 8.16035,3.60247 20.90422,9.2333 28.31972,12.51295 29.87898,13.21458 39.34216,22.68683 39.34216,39.37992 0,15.4436 -9.83609,26.19126 -28.39628,31.02794 -9.94076,2.59051 -28.90055,1.67525 -39.31157,-1.89772 -14.18793,-4.86916 -27.77851,-15.82488 -37.11852,-29.92219 -2.69204,-4.06323 -4.29591,-5.61602 -5.37358,-5.20248 C 465.0247,548.69523 416,577.41744 416,578.04411 c 0,2.29277 15.09606,22.80188 21.58503,29.32486 28.7761,28.92689 71.61204,41.61957 119.91497,35.5319 z"
         id="path2991"
         inkscape:connector-curvature="0" />
      <path
         style="fill:#31322f"
         d="m 270.5,643.85331 c -25.66567,-1.8869 -49.15994,-12.28972 -65.7581,-29.11646 -9.7038,-9.83744 -22.15172,-28.8786 -20.07292,-30.70488 C 186.6622,582.28087 235.81284,553 236.759,553 c 0.57755,0 2.38732,2.3625 4.02173,5.25 12.82418,22.65643 28.44487,31.07263 49.42005,26.62679 14.80897,-3.13886 21.80143,-12.24102 23.77103,-30.94295 0.59466,-5.6464 1.00049,-54.29854 1.01086,-121.18384 L 315,321 l 32.5,0 32.5,0 -0.0309,118.25 c -0.0182,69.63383 -0.42597,121.29391 -0.99188,125.65376 -7.11442,54.8104 -46.53852,83.50319 -108.47724,78.94955 z m 252.43218,0.0709 c -43.96369,-3.0574 -78.2467,-21.84416 -100.05364,-54.8284 C 419.09535,583.3735 416,578.40024 416,578.04411 c 0,-0.62667 49.0247,-29.34888 52.12493,-30.53856 1.07767,-0.41354 2.68154,1.13925 5.37358,5.20248 9.34001,14.09731 22.93059,25.05303 37.11852,29.92219 10.41102,3.57297 29.37081,4.48823 39.31157,1.89772 18.56019,-4.83668 28.39628,-15.58434 28.39628,-31.02794 0,-16.69309 -9.46318,-26.16534 -39.34216,-39.37992 -7.4155,-3.27965 -20.15937,-8.91048 -28.31972,-12.51295 -41.82685,-18.46492 -62.17978,-37.93728 -71.23861,-68.15647 -3.54317,-11.81963 -4.54777,-34.72604 -2.05219,-46.79337 3.54289,-17.13162 10.38063,-29.64969 23.02755,-42.15729 13.97158,-13.81767 29.15243,-21.33994 50.60025,-25.07296 13.01915,-2.26601 39.84114,-1.4933 51.79389,1.49212 23.66609,5.91103 42.39847,19.23081 56.55253,40.21203 l 5.64564,8.36881 -2.56246,2 c -1.40935,1.1 -12.86722,8.6086 -25.46192,16.68579 l -22.89946,14.68579 -4.5327,-6.81816 c -9.08594,-13.66719 -19.49288,-19.95998 -34.41684,-20.81091 -15.66199,-0.893 -26.28354,4.28326 -31.78705,15.49096 -2.39289,4.87305 -2.81847,6.94305 -2.74672,13.35978 0.20278,18.13242 8.72374,25.33834 51.91509,43.90306 33.2523,14.29266 50.8626,24.59913 64.82967,37.9417 19.48521,18.61398 27.52484,40.13403 26.36112,70.56199 -0.64292,16.81071 -2.25188,23.64367 -8.74801,37.15145 -16.76065,34.85138 -59.28947,53.93924 -112.0106,50.27278 z"
         id="path2989"
         inkscape:connector-curvature="0" />
    </g>
  </g>
</svg>
