<?xml version="1.0" encoding="utf-8"?>
<svg version="1.1" id="Layer_1" xmlns="http://www.w3.org/2000/svg" xmlns:xlink="http://www.w3.org/1999/xlink" x="0px" y="0px"
	 viewBox="0 0 425.5 322.4" style="enable-background:new 0 0 425.5 322.4;" xml:space="preserve">
<style type="text/css">
	.st0{fill-rule:evenodd;clip-rule:evenodd;fill:#00A1F5;}
	.st1{fill-rule:evenodd;clip-rule:evenodd;fill:#037FF3;}
	.st2{fill-rule:evenodd;clip-rule:evenodd;fill:#0169E6;}
	.st3{fill-rule:evenodd;clip-rule:evenodd;fill:#0440C4;}
	.st4{fill-rule:evenodd;clip-rule:evenodd;fill:#92DEF6;}
	.st5{fill:#3A3A3F;}
</style>
<g id="Guias_para_prancheta">
</g>
<g id="Camada_1">
	<path class="st0" d="M209.7,175.4c91.7,0,166.4-8.4,166.4-18.7S301.3,138,209.7,138c-91.7,0-166.4,8.4-166.4,18.7
		C43.3,167.1,118,175.4,209.7,175.4z"/>
	<polygon class="st1" points="168.9,110.3 137.8,45 149.8,111.1 	"/>
	<polygon class="st2" points="152.9,158.6 72.1,158.6 149.8,111.1 	"/>
	<polygon class="st2" points="279.4,158.6 279.4,136.2 167.5,109.7 151.4,158.6 	"/>
	<polygon class="st3" points="279.4,158.6 279.4,136.5 318.8,83.4 338.3,158.6 	"/>
	<polygon class="st4" points="149.8,111.1 137.8,45 72,158.6 	"/>
	<polygon class="st4" points="279.4,136.5 214.6,8.2 168.9,110.3 	"/>
	<polygon class="st1" points="318.8,83.4 214.6,8.2 279.4,136.5 	"/>
	<polygon class="st3" points="168.9,110.3 149.8,111.1 152.9,158.6 	"/>
	<g>
		<path class="st5" d="M10.3,199h10.8v64.2H10.3V199z"/>
		<path class="st5" d="M68.3,253.4c3.7,0,7-0.6,9.6-1.9c2.7-1.3,5.5-3.3,8.5-6l7,7.2c-6.8,7.5-15.1,11.3-24.8,11.3
			s-17.8-3.1-24.2-9.4c-6.4-6.2-9.6-14.2-9.6-23.7c0-9.6,3.3-17.5,9.8-23.9s14.8-9.6,24.7-9.6c10,0,18.3,3.7,25,11l-6.9,7.5
			c-3.1-2.9-6-5-8.7-6.2s-5.9-1.7-9.6-1.7c-6.5,0-11.9,2.1-16.4,6.3c-4.4,4.2-6.6,9.6-6.6,16.1s2.2,12,6.6,16.4
			C57.1,251.3,62.3,253.4,68.3,253.4z"/>
		<path class="st5" d="M151.8,199v10.2h-34.3v17h30.8v9.6h-30.8V253h35.4v10.2h-46.2V199H151.8z"/>
		<path class="st5" d="M194.9,263.3h-28.1V199h25c4.3,0,8.1,0.5,11.3,1.6c3.2,1,5.5,2.5,7,4.2c2.9,3.3,4.4,7,4.4,11.2
			c0,5-1.6,8.8-4.8,11.2c-1.2,0.9-2,1.4-2.4,1.6c-0.4,0.2-1.2,0.6-2.3,1.1c4,0.9,7.2,2.7,9.5,5.4c2.4,2.7,3.5,6.1,3.5,10.2
			c0,4.5-1.5,8.4-4.6,11.9C209.8,261.3,203.6,263.3,194.9,263.3z M177.6,225.7h13.8c7.8,0,11.8-2.7,11.8-8c0-3.1-1-5.3-2.8-6.6
			c-1.9-1.3-4.8-2-8.8-2h-13.9v16.6H177.6z M177.6,253.3h17c4,0,7-0.6,9.1-1.9c2.1-1.3,3.2-3.6,3.2-7.1c0-5.7-4.6-8.5-13.7-8.5
			h-15.6V253.3z"/>
		<path class="st5" d="M276.8,199v10.2h-34.3v17h30.8v9.6h-30.8V253h35.4v10.2h-46.2V199H276.8z"/>
		<path class="st5" d="M343,219.9c0,10.6-4.6,17.3-13.9,20l16.8,23.3h-13.8l-15.3-21.6h-14.2v21.6h-10.8V199h23.9
			c9.8,0,16.8,1.7,21,5C340.9,207.3,343,212.6,343,219.9z M328.6,229c2.2-1.9,3.3-4.9,3.3-9.1c0-4.2-1.1-7.1-3.4-8.6
			c-2.3-1.6-6.3-2.3-12.1-2.3h-13.8v23h13.5C322.2,231.8,326.4,230.9,328.6,229z"/>
		<path class="st5" d="M403.1,232H414v22c-6.1,6.7-14.7,10-26,10c-9.5,0-17.4-3.1-23.8-9.4c-6.4-6.2-9.6-14.2-9.6-23.7
			c0-9.6,3.3-17.5,9.8-23.9s14.4-9.6,23.7-9.6c9.3,0,16.9,2.7,23.1,8.1l-5.8,8.3c-2.5-2.1-5-3.6-7.6-4.5c-2.5-0.8-5.5-1.2-8.9-1.2
			c-6.5,0-11.9,2.1-16.4,6.3c-4.4,4.2-6.6,9.7-6.6,16.5s2.1,12.3,6.4,16.5c4.3,4.1,9.5,6.2,15.6,6.2s11.2-1.3,15.3-4V232H403.1z"/>
	</g>
</g>
<g>
	<path class="st5" d="M16.3,303.2l-4-12.9h-0.1c0.1,2.6,0.2,4.4,0.2,5.3v7.7H9.3v-16.5h4.8l3.9,12.6H18l4.1-12.6H27v16.5h-3.3v-7.8
		c0-0.4,0-0.8,0-1.3s0.1-1.8,0.2-3.8h-0.1l-4.3,12.9H16.3z"/>
	<path class="st5" d="M44.5,286.7v10.7c0,1.2-0.3,2.3-0.8,3.2c-0.5,0.9-1.3,1.6-2.4,2.1c-1,0.5-2.3,0.7-3.7,0.7
		c-2.1,0-3.8-0.5-4.9-1.6c-1.2-1.1-1.8-2.6-1.8-4.5v-10.6h3.5v10.1c0,1.3,0.3,2.2,0.8,2.8s1.4,0.9,2.5,0.9c1.1,0,2-0.3,2.5-0.9
		c0.5-0.6,0.8-1.5,0.8-2.8v-10.1H44.5z"/>
	<path class="st5" d="M48.6,303.2v-16.5h3.5v13.6h6.7v2.9H48.6z"/>
	<path class="st5" d="M68,303.2h-3.5v-13.6H60v-2.9h12.5v2.9H68V303.2z"/>
	<path class="st5" d="M75,303.2v-16.5h3.5v16.5H75z"/>
	<path class="st5" d="M81.3,298.4v-2.8h6.1v2.8H81.3z"/>
	<path class="st5" d="M90.1,303.2v-16.5h3.5v13.6h6.7v2.9H90.1z"/>
	<path class="st5" d="M113.3,303.2l-1.2-3.9h-6l-1.2,3.9h-3.8l5.8-16.6h4.3l5.8,16.6H113.3z M111.2,296.4c-1.1-3.6-1.7-5.6-1.9-6
		c-0.1-0.5-0.2-0.8-0.3-1.1c-0.2,1-1,3.3-2.1,7.1H111.2z"/>
	<path class="st5" d="M133.8,303.2h-4.4l-7.2-12.5H122c0.1,2.2,0.2,3.8,0.2,4.7v7.8h-3.1v-16.5h4.4l7.2,12.4h0.1
		c-0.1-2.1-0.2-3.7-0.2-4.5v-7.8h3.1V303.2z"/>
	<path class="st5" d="M144.2,293.9h6.5v8.6c-1.1,0.3-2.1,0.6-3,0.7c-0.9,0.1-1.9,0.2-2.9,0.2c-2.5,0-4.4-0.7-5.7-2.2
		c-1.3-1.5-2-3.6-2-6.3c0-2.7,0.8-4.7,2.3-6.2c1.5-1.5,3.6-2.2,6.3-2.2c1.7,0,3.3,0.3,4.9,1l-1.2,2.8c-1.2-0.6-2.5-0.9-3.8-0.9
		c-1.5,0-2.7,0.5-3.6,1.5c-0.9,1-1.4,2.4-1.4,4.1c0,1.8,0.4,3.2,1.1,4.1c0.7,0.9,1.8,1.4,3.2,1.4c0.7,0,1.5-0.1,2.2-0.2v-3.4h-3.1
		V293.9z"/>
	<path class="st5" d="M168.1,286.7v10.7c0,1.2-0.3,2.3-0.8,3.2c-0.5,0.9-1.3,1.6-2.4,2.1c-1,0.5-2.3,0.7-3.7,0.7
		c-2.1,0-3.8-0.5-4.9-1.6c-1.2-1.1-1.8-2.6-1.8-4.5v-10.6h3.5v10.1c0,1.3,0.3,2.2,0.8,2.8s1.4,0.9,2.5,0.9c1.1,0,2-0.3,2.5-0.9
		c0.5-0.6,0.8-1.5,0.8-2.8v-10.1H168.1z"/>
	<path class="st5" d="M182.2,303.2l-1.2-3.9h-6l-1.2,3.9h-3.8l5.8-16.6h4.3l5.8,16.6H182.2z M180.2,296.4c-1.1-3.6-1.7-5.6-1.9-6
		c-0.1-0.5-0.2-0.8-0.3-1.1c-0.2,1-1,3.3-2.1,7.1H180.2z"/>
	<path class="st5" d="M194.3,293.9h6.5v8.6c-1.1,0.3-2.1,0.6-3,0.7c-0.9,0.1-1.9,0.2-2.9,0.2c-2.5,0-4.4-0.7-5.7-2.2
		c-1.3-1.5-2-3.6-2-6.3c0-2.7,0.8-4.7,2.3-6.2c1.5-1.5,3.6-2.2,6.3-2.2c1.7,0,3.3,0.3,4.9,1l-1.2,2.8c-1.2-0.6-2.5-0.9-3.8-0.9
		c-1.5,0-2.7,0.5-3.6,1.5c-0.9,1-1.4,2.4-1.4,4.1c0,1.8,0.4,3.2,1.1,4.1c0.7,0.9,1.8,1.4,3.2,1.4c0.7,0,1.5-0.1,2.2-0.2v-3.4h-3.1
		V293.9z"/>
	<path class="st5" d="M214.3,303.2h-9.5v-16.5h9.5v2.9h-6v3.6h5.6v2.9h-5.6v4.3h6V303.2z"/>
	<path class="st5" d="M230,293.9h6.5v8.6c-1.1,0.3-2.1,0.6-3,0.7c-0.9,0.1-1.9,0.2-2.9,0.2c-2.5,0-4.4-0.7-5.7-2.2
		c-1.3-1.5-2-3.6-2-6.3c0-2.7,0.8-4.7,2.3-6.2s3.6-2.2,6.3-2.2c1.7,0,3.3,0.3,4.9,1l-1.2,2.8c-1.2-0.6-2.5-0.9-3.8-0.9
		c-1.5,0-2.7,0.5-3.6,1.5s-1.4,2.4-1.4,4.1c0,1.8,0.4,3.2,1.1,4.1c0.7,0.9,1.8,1.4,3.2,1.4c0.7,0,1.5-0.1,2.2-0.2v-3.4H230V293.9z"
		/>
	<path class="st5" d="M250.6,303.2l-1.2-3.9h-6l-1.2,3.9h-3.8l5.8-16.6h4.3l5.8,16.6H250.6z M248.6,296.4c-1.1-3.6-1.7-5.6-1.9-6
		c-0.1-0.5-0.2-0.8-0.3-1.1c-0.2,1-1,3.3-2.1,7.1H248.6z"/>
	<path class="st5" d="M262.8,303.2h-3.5v-13.6h-4.5v-2.9h12.5v2.9h-4.5V303.2z"/>
	<path class="st5" d="M279.6,298.6c0,1.5-0.5,2.7-1.6,3.5c-1.1,0.9-2.6,1.3-4.5,1.3c-1.8,0-3.3-0.3-4.7-1v-3.3
		c1.1,0.5,2.1,0.8,2.8,1c0.8,0.2,1.5,0.3,2.1,0.3c0.8,0,1.4-0.1,1.8-0.4c0.4-0.3,0.6-0.7,0.6-1.3c0-0.3-0.1-0.6-0.3-0.9
		s-0.4-0.5-0.8-0.7c-0.3-0.2-1.1-0.6-2.1-1.1c-1-0.5-1.8-0.9-2.3-1.4c-0.5-0.4-0.9-0.9-1.2-1.5s-0.5-1.3-0.5-2
		c0-1.5,0.5-2.6,1.5-3.4c1-0.8,2.4-1.3,4.1-1.3c0.9,0,1.7,0.1,2.5,0.3s1.6,0.5,2.4,0.9l-1.1,2.7c-0.9-0.4-1.6-0.6-2.2-0.8
		c-0.6-0.1-1.1-0.2-1.7-0.2c-0.7,0-1.2,0.2-1.5,0.5s-0.5,0.7-0.5,1.2c0,0.3,0.1,0.6,0.2,0.8c0.1,0.2,0.4,0.5,0.7,0.7
		c0.3,0.2,1.1,0.6,2.2,1.2c1.5,0.7,2.6,1.5,3.2,2.2C279.3,296.6,279.6,297.6,279.6,298.6z"/>
	<path class="st5" d="M282.6,286.7h5.1c2.3,0,4,0.3,5.1,1c1.1,0.7,1.6,1.7,1.6,3.2c0,1-0.2,1.8-0.7,2.4c-0.5,0.6-1.1,1-1.8,1.1v0.1
		c1,0.2,1.8,0.7,2.3,1.3s0.7,1.5,0.7,2.6c0,1.5-0.5,2.7-1.6,3.5c-1.1,0.8-2.6,1.3-4.4,1.3h-6.2V286.7z M286.1,293.2h2
		c0.9,0,1.6-0.1,2.1-0.4c0.4-0.3,0.6-0.8,0.6-1.5c0-0.6-0.2-1.1-0.7-1.4s-1.2-0.4-2.2-0.4h-1.8V293.2z M286.1,296v4.3h2.3
		c1,0,1.7-0.2,2.1-0.6c0.5-0.4,0.7-0.9,0.7-1.7c0-1.4-1-2.1-2.9-2.1H286.1z"/>
	<path class="st5" d="M303.2,293.5l3.4-6.8h3.8l-5.5,10.1v6.4h-3.5v-6.3l-5.5-10.2h3.8L303.2,293.5z"/>
	<path class="st5" d="M334.6,303.2h-4l-2.2-8.7c-0.1-0.3-0.2-0.9-0.4-1.9c-0.2-1-0.3-1.6-0.3-1.9c0,0.4-0.2,1.1-0.3,2
		s-0.3,1.5-0.4,1.9l-2.2,8.6h-4l-4.2-16.5h3.4l2.1,9c0.4,1.7,0.6,3.1,0.8,4.3c0-0.4,0.1-1.1,0.3-2c0.2-0.9,0.3-1.6,0.5-2.1l2.4-9.2
		h3.3l2.4,9.2c0.1,0.4,0.2,1,0.4,1.9s0.3,1.6,0.4,2.2c0.1-0.6,0.2-1.3,0.4-2.2c0.2-0.9,0.3-1.6,0.5-2.1l2.1-9h3.4L334.6,303.2z"/>
	<path class="st5" d="M350.4,303.2h-9.5v-16.5h9.5v2.9h-6v3.6h5.6v2.9h-5.6v4.3h6V303.2z"/>
	<path class="st5" d="M353.8,286.7h5.1c2.3,0,4,0.3,5.1,1c1.1,0.7,1.6,1.7,1.6,3.2c0,1-0.2,1.8-0.7,2.4c-0.5,0.6-1.1,1-1.8,1.1v0.1
		c1,0.2,1.8,0.7,2.3,1.3s0.7,1.5,0.7,2.6c0,1.5-0.5,2.7-1.6,3.5c-1.1,0.8-2.6,1.3-4.4,1.3h-6.2V286.7z M357.3,293.2h2
		c0.9,0,1.6-0.1,2.1-0.4c0.4-0.3,0.6-0.8,0.6-1.5c0-0.6-0.2-1.1-0.7-1.4s-1.2-0.4-2.2-0.4h-1.8V293.2z M357.3,296v4.3h2.3
		c1,0,1.7-0.2,2.1-0.6c0.5-0.4,0.7-0.9,0.7-1.7c0-1.4-1-2.1-2.9-2.1H357.3z"/>
	<path class="st5" d="M379.1,298.6c0,1.5-0.5,2.7-1.6,3.5c-1.1,0.9-2.6,1.3-4.5,1.3c-1.8,0-3.3-0.3-4.7-1v-3.3
		c1.1,0.5,2.1,0.8,2.8,1c0.8,0.2,1.5,0.3,2.1,0.3c0.8,0,1.4-0.1,1.8-0.4c0.4-0.3,0.6-0.7,0.6-1.3c0-0.3-0.1-0.6-0.3-0.9
		s-0.4-0.5-0.8-0.7c-0.3-0.2-1.1-0.6-2.1-1.1c-1-0.5-1.8-0.9-2.3-1.4c-0.5-0.4-0.9-0.9-1.2-1.5s-0.5-1.3-0.5-2
		c0-1.5,0.5-2.6,1.5-3.4c1-0.8,2.4-1.3,4.1-1.3c0.9,0,1.7,0.1,2.5,0.3s1.6,0.5,2.4,0.9l-1.1,2.7c-0.9-0.4-1.6-0.6-2.2-0.8
		c-0.6-0.1-1.1-0.2-1.7-0.2c-0.7,0-1.2,0.2-1.5,0.5s-0.5,0.7-0.5,1.2c0,0.3,0.1,0.6,0.2,0.8c0.1,0.2,0.4,0.5,0.7,0.7
		c0.3,0.2,1.1,0.6,2.2,1.2c1.5,0.7,2.6,1.5,3.2,2.2C378.8,296.6,379.1,297.6,379.1,298.6z"/>
	<path class="st5" d="M382.1,303.2v-16.5h3.5v16.5H382.1z"/>
	<path class="st5" d="M396.1,303.2h-3.5v-13.6h-4.5v-2.9h12.5v2.9h-4.5V303.2z"/>
	<path class="st5" d="M412.6,303.2h-9.5v-16.5h9.5v2.9h-6v3.6h5.6v2.9h-5.6v4.3h6V303.2z"/>
</g>
</svg>
